# xmcd
#
# Track frame offsets:
# 150
# 22930
# 45390
# 66482
# 104235
# 121720
# 143547
# 170142
# 198650
# 216407
# 231647
#
# Disc length: 3448 seconds
#
#
# Revision: 0
# Processed by: cddbd v1.5.2PL0 Copyright (c) Steve Scherf et al.
# Submitted via: Nero 7, 11, 10, 0 
#
DISCID=a90d760b
DTITLE=Lil' Slim and The Back-Alley Blues Band - Live At The Zoo Bar
DYEAR=1999
DGENRE=Blues
TTITLE0=Take Me Home
TTITLE1=She's So Fine
TTITLE2=If It Is Too Late
TTITLE3=As The Years Go Passing By
TTITLE4=Funkin' In The Alley
TTITLE5=Shake It
TTITLE6=Tell Me
TTITLE7=Alley Noise
TTITLE8=I'm Good
TTITLE9=Hard To Handle
TTITLE10=Latin Blues
EXTD=
EXTT0=Take Me Home
EXTT1=She's So Fine
EXTT2=If It Is Too Late
EXTT3=As The Years Go Passing By
EXTT4=Funkin' In The Alley
EXTT5=Shake It
EXTT6=Tell Me
EXTT7=Alley Noise
EXTT8=I'm Good
EXTT9=Hard To Handle
EXTT10=Latin Blues
PLAYORDER=
